<?xml version="1.0" encoding="utf-8"?>
<?xml-stylesheet type="text/xsl" href="rss1.xsl"?>
<rss version="2.0" xmlns:atom="http://www.w3.org/2005/Atom" xmlns:content="http://purl.org/rss/1.0/modules/content/" xmlns:dc="http://purl.org/dc/elements/1.1/" xmlns:media="http://search.yahoo.com/mrss/">
<channel>
 <title>Getty</title>
 <link>http://www.gettyimg.com/</link>
 <atom:link href="http://www.gettyimg.com/" rel="self" type="application/rss+xml" />

 
                <item>
                <title><![CDATA[【SD】Avril Lavigne - Don't Tell Me (Music Video) SD Upscale]]></title>
                <link><![CDATA[https://sharemania.us/threads/avril-lavigne-dont-tell-me-music-video-sd-upscale.234680/]]></link>
                <description><![CDATA[<article>
<blockquote class="messageText SelectQuoteContainer ugc baseHtml">
Very good quality! <img src="styles/default/xenforo/smilies/big_smile-48.png" class="mceSmilie" alt=":)" title="Smile    :)"><img src="styles/default/xenforo/smilies/big_smile-48.png" class="mceSmilie" alt=":)" title="Smile    :)"><br>
<br>
<img src="https://i.imgur.com/sDJ2xO6.png" class="bbCodeImage LbImage" alt="[​IMG]" data-url="https://i.imgur.com/sDJ2xO6.png" style=""> <img src="https://i.imgur.com/obPjqnn.png" class="bbCodeImage LbImage" alt="[​IMG]" data-url="https://i.imgur.com/obPjqnn.png" style=""> <img src="https://i.imgur.com/rHGUUsa.png" class="bbCodeImage LbImage" alt="[​IMG]" data-url="https://i.imgur.com/rHGUUsa.png" style=""> <img src="https://i.imgur.com/n81GoqC.png" class="bbCodeImage LbImage" alt="[​IMG]" data-url="https://i.imgur.com/n81GoqC.png" style=""> <img src="https://i.imgur.com/yoqSiXP.png" class="bbCodeImage LbImage" alt="[​IMG]" data-url="https://i.imgur.com/yoqSiXP.png" style=""> <img src="https://i.imgur.com/0m9adth.png" class="bbCodeImage LbImage" alt="[​IMG]" data-url="https://i.imgur.com/0m9adth.png" style=""> <img src="https://i.imgur.com/NGq7iJw.png" class="bbCodeImage LbImage" alt="[​IMG]" data-url="https://i.imgur.com/NGq7iJw.png" style="">
<div class="ToggleTriggerAnchor bbCodeSpoilerContainer">
<button type="button" class="button bbCodeSpoilerButton ToggleTrigger Tooltip JsOnly" data-target="> .SpoilerTarget"><span>Spoiler: <span class="SpoilerTitle">MediaInfo</span></span></button>
<div class="SpoilerTarget bbCodeSpoilerText">General<br>
File size : 584 MiB<br>
Duration : 3 min 19 s<br>
Overall bit rate : 24.6 Mb/s<br>
Writing application : Lavf60.14.101<br>
Writing library : Lavf60.14.101<br>
ErrorDetectionType : Per level 1<br>
SOFTWARE : Nandub v1.0rc2<br>
<br>
Video<br>
ID : 1<br>
Format : AVC<br>
Format/Info : Advanced Video Codec<br>
Format profile : High@L4.2<br>
Format settings : CABAC / 1 Ref Frames<br>
Format settings, CABAC : Yes<br>
Format settings, Reference fra : 1 frame<br>
Format settings, GOP : M=1, N=30<br>
Codec ID : V_MPEG4/ISO/AVC<br>
Duration : 3 min 19 s<br>
Bit rate : 21.8 Mb/s<br>
Width : 720 pixels<br>
Height : 480 pixels<br>
Display aspect ratio : 3:2<br>
Frame rate mode : Constant<br>
Frame rate : 23.976 (23976/1000) FPS<br>
Standard : Component<br>
Color space : YUV<br>
Chroma subsampling : 4:2:0<br>
Bit depth : 8 bits<br>
Scan type : Progressive<br>
Bits/(Pixel*Frame) : 2.631<br>
Stream size : 518 MiB (89%)<br>
Writing library : Lavc60.27.101 h264_amf<br>
Default : No<br>
Forced : No<br>
Color range : Limited<br>
Matrix coefficients : BT.709<br>
VENDOR_ID : FFMP<br>
<br>
Audio<br>
ID : 2<br>
Format : PCM<br>
Format settings : Little / Signed<br>
Codec ID : A_PCM/INT/LIT<br>
Duration : 3 min 19 s<br>
Bit rate mode : Constant<br>
Bit rate : 2 304 kb/s<br>
Channel(s) : 2 channels<br>
Sampling rate : 48.0 kHz<br>
Bit depth : 24 bits<br>
Delay relative to video : 32 ms<br>
Stream size : 54.7 MiB (9%)<br>
Writing library : Lavc60.27.101 pcm_s24le<br>
Default : Yes<br>
Forced : No<br>
VENDOR_ID : [0][0][0][0]</div>
</div><br>
<div class="bbCodeBlock bbCodeVfcHH HiddenContent">
<div class="attribution type">Hidden Content:</div>
<blockquote>You must reply before you can see the hidden data contained here.</blockquote>
</div>
<div class="messageTextEndMarker">&nbsp;</div>
</blockquote>
</article>]]></description>
                <author><![CDATA[Avril1255]]></author>
                </item>

                </channel></rss>